HIERARCHY
ROOT hip
{
	OFFSET 0.000000 0.000000 0.000000 
	CHANNELS 6 Xposition Yposition Zposition Xrotation Zrotation Yrotation
	JOINT abdomen
	{
		OFFSET 0.000000 3.402643 0.000000 
		CHANNELS 3 Xrotation Zrotation Yrotation
		JOINT chest
		{
			OFFSET 0.000000 8.438565 -0.680529 
			CHANNELS 3 Xrotation Zrotation Yrotation
			JOINT neck
			{
				OFFSET 0.000000 10.207942 -0.272212 
				CHANNELS 3 Xrotation Zrotation Yrotation
				JOINT head
				{
					OFFSET 0.000000 3.130431 0.000000 
					CHANNELS 3 Xrotation Zrotation Yrotation
					End Site
					{
						OFFSET 0.000000 3.130435 0.000000 
					}
				}
			}
			JOINT lCollar
			{
				OFFSET 3.470700 6.669187 -0.816635 
				CHANNELS 3 Yrotation Zrotation Xrotation
				JOINT lShldr
				{
					OFFSET 3.198488 0.000000 0.000000 
					CHANNELS 3 Zrotation Yrotation Xrotation
					JOINT lForeArm
					{
						OFFSET 10.139888 0.000000 0.000000 
						CHANNELS 3 Yrotation Zrotation Xrotation
						JOINT lHand
						{
							OFFSET 8.370511 0.000000 0.000000 
							CHANNELS 3 Zrotation Yrotation Xrotation
							End Site
							{
								OFFSET 4.083176 0.000000 0.000000 
							}
						}
					}
				}
			}
			JOINT rCollar
			{
				OFFSET -3.470700 6.669187 -0.816635 
				CHANNELS 3 Yrotation Zrotation Xrotation
				JOINT rShldr
				{
					OFFSET -3.198488 0.000000 0.000000 
					CHANNELS 3 Zrotation Yrotation Xrotation
					JOINT rForeArm
					{
						OFFSET -10.139888 0.000000 0.000000 
						CHANNELS 3 Yrotation Zrotation Xrotation
						JOINT rHand
						{
							OFFSET -8.370511 0.000000 0.000000 
							CHANNELS 3 Zrotation Yrotation Xrotation
							End Site
							{
								OFFSET -4.083176 0.000000 0.000000 
							}
						}
					}
				}
			}
		}
	}
	JOINT lThigh
	{
		OFFSET 5.308129 -1.633274 1.361059 
		CHANNELS 3 Xrotation Zrotation Yrotation
		JOINT lShin
		{
			OFFSET -2.041588 -20.007561 0.000000 
			CHANNELS 3 Xrotation Zrotation Yrotation
			JOINT lFoot
			{
				OFFSET 0.000000 -19.190928 -1.224953 
				CHANNELS 3 Xrotation Yrotation Zrotation
				End Site
				{
					OFFSET 0.000000 -2.449906 4.627600 
				}
			}
		}
	}
	JOINT rThigh
	{
		OFFSET -5.308129 -1.633274 1.361059 
		CHANNELS 3 Xrotation Zrotation Yrotation
		JOINT rShin
		{
			OFFSET 2.041588 -20.007561 0.000000 
			CHANNELS 3 Xrotation Zrotation Yrotation
			JOINT rFoot
			{
				OFFSET 0.000000 -19.190928 -1.224953 
				CHANNELS 3 Xrotation Yrotation Zrotation
				End Site
				{
					OFFSET 0.000000 -2.449906 4.627600 
				}
			}
		}
	}
}
MOTION
Frames: 6
Frame Time: 0.016667
-0.326915 44.150112 2.606179 -1.547830 -4.539370 7.485430 -22.934601 4.180880 -1.162920 13.036100 5.131500 -0.236966 18.649424 -3.842853 -11.391649 14.949300 10.894700 -1.950530 2.000000 -2.000000 0.000000 85.131798 163.570007 -6.454700 40.615601 -0.318630 0.089057 0.072128 -0.073308 -164.108994 -2.000000 2.000000 0.000000 74.379997 26.615000 132.225998 -96.142998 0.201264 0.116466 -0.163666 0.152057 151.682007 -3.554927 1.644931 -2.231825 20.984629 3.772584 1.393380 -9.195060 -0.574442 -0.994121 0.104283 8.552331 -4.244718 13.759409 -2.813942 -1.138933 -7.701855 -8.481438 -2.220845 
-0.321885 44.134129 2.557165 -1.625810 -4.363480 5.972980 -22.779400 4.272450 -0.892247 13.193400 5.094580 -0.090182 18.743124 -3.471908 -11.223988 15.027600 10.862900 -1.785000 2.000000 -2.000000 0.000000 85.297600 163.403000 -6.113280 39.931999 -0.319684 0.087813 0.072924 -0.074836 -164.723999 -2.000000 2.000000 0.000000 78.597900 27.604000 141.895004 -97.422302 0.198449 0.116131 -0.166239 0.152899 150.714996 -3.132234 1.411486 -1.254631 20.744745 3.777962 1.376420 -9.060319 0.368074 -0.752102 -0.152067 8.277055 -3.342064 14.547062 -2.866922 -1.173013 -7.945424 -7.875159 -2.067976 
-0.314625 44.119308 2.516229 -1.674270 -4.129100 4.407380 -22.700100 4.349210 -0.410332 13.283200 4.959970 0.169223 18.759483 -3.395966 -11.103341 15.015000 10.796200 -1.760570 2.000000 -2.000000 0.000000 85.727097 163.431000 -5.546810 38.555099 -0.321762 0.085269 0.071966 -0.072991 -163.981995 -2.000000 2.000000 0.000000 81.291100 28.293699 153.389999 -97.734802 0.197763 0.116040 -0.170111 0.154076 149.270004 -2.688955 1.051915 -0.295300 20.460432 3.809237 1.363649 -9.022487 1.440040 -0.547418 -0.466354 7.959885 -2.380627 15.349340 -2.946712 -1.220283 -8.125307 -7.303451 -1.881562 
-0.307364 44.104618 2.475270 -1.732520 -3.894710 2.851820 -22.619400 4.429300 0.080475 13.382600 4.825390 0.419275 18.776119 -3.319916 -10.983310 14.992900 10.739400 -1.736110 2.000000 -2.000000 0.000000 86.156700 163.459000 -4.980340 37.187901 -0.323765 0.082694 0.071045 -0.071159 -163.250000 -2.000000 2.000000 0.000000 84.105202 28.492599 164.947998 -98.047302 0.197077 0.115945 -0.174012 0.155156 147.824005 -2.217838 0.703581 0.620770 20.121592 3.762243 1.367469 -8.955135 2.500780 -0.327437 -0.727413 7.611544 -1.412543 16.074469 -2.957197 -1.261510 -8.298499 -6.685869 -1.701982 
-0.281564 44.096237 2.452140 -1.712780 -3.816660 1.510280 -22.371000 4.522760 0.578853 13.777200 4.567590 0.707769 18.826094 -3.375356 -11.003483 15.080800 10.697700 -1.736860 2.000000 -2.000000 0.000000 86.459900 164.102997 -4.676130 36.348000 -0.324965 0.081088 0.069055 -0.066988 -161.598999 -2.000000 2.000000 0.000000 -95.761002 150.393005 -3.150410 -97.197701 0.198943 0.116194 -0.172401 0.154723 148.419998 -1.999318 0.447746 1.271262 19.960400 3.767879 1.339659 -9.077657 3.598918 -0.106983 -1.017130 7.410398 -0.790158 16.622791 -3.007678 -1.299979 -8.421947 -5.879838 -1.505901 
-0.255761 44.087856 2.428987 -1.693060 -3.738610 0.168786 -22.121099 4.619280 1.084940 14.171200 4.318850 0.982627 18.877203 -3.431960 -11.033888 15.178200 10.646000 -1.728010 2.000000 -2.000000 0.000000 86.763000 164.746994 -4.371910 35.518002 -0.326127 0.079485 0.067197 -0.062787 -159.959000 -2.000000 2.000000 0.000000 84.639503 30.662600 -171.115997 -96.357803 0.200790 0.116414 -0.170795 0.154273 149.016006 -1.716302 0.210856 1.907318 19.764429 3.750334 1.328317 -9.229012 4.684755 0.112382 -1.221247 7.185695 -0.156248 16.961681 -3.004672 -1.324339 -8.412885 -5.054629 -1.313534 
